<svg width="200" height="153" viewBox="0 0 200 153" fill="none" xmlns="http://www.w3.org/2000/svg">
<path fill-rule="evenodd" clip-rule="evenodd" d="M0 0L123.81 152.381C165.888 152.381 200 118.269 200 76.1905C200 34.1116 165.888 0 123.81 0H0ZM132.359 132.698C159.863 128.572 180.952 104.844 180.952 76.1905C180.952 44.6313 155.369 19.0476 123.81 19.0476H92.4602C106.033 34.2121 114.286 54.2375 114.286 76.1905C114.286 86.1185 112.594 95.6624 109.483 104.542L132.359 132.698ZM94.5064 86.1097C94.9883 82.8749 95.2381 79.5629 95.2381 76.1905C95.2381 51.9398 82.2897 30.7133 62.9294 19.0476H40.0185L94.5064 86.1097Z" fill="url(#paint0_linear_1_3)"/>
<defs>
<linearGradient id="paint0_linear_1_3" x1="115.5" y1="62.5" x2="161.5" y2="112" gradientUnits="userSpaceOnUse">
<stop stop-color="#8400FF"/>
<stop offset="1" stop-color="#E600FF"/>
</linearGradient>
</defs>
</svg>
